<svg width="33" height="24" viewBox="0 0 33 24" fill="none" xmlns="http://www.w3.org/2000/svg">
<path d="M22.5 7C22.5 6.44772 22.9477 6 23.5 6H27.5C28.0523 6 28.5 6.44772 28.5 7V9C28.5 9.55228 28.0523 10 27.5 10H23.5C22.9477 10 22.5 9.55228 22.5 9V7Z" fill="#AEAEAE"/>
<path d="M4.5 0C2.29086 0 0.5 1.79086 0.5 4V20C0.5 22.2091 2.29086 24 4.5 24H28.5C30.7091 24 32.5 22.2091 32.5 20V4C32.5 1.79086 30.7091 0 28.5 0H4.5ZM30.5 4V14H2.5V4C2.5 2.89543 3.39543 2 4.5 2H28.5C29.6046 2 30.5 2.89543 30.5 4ZM28.5 22H4.5C3.39543 22 2.5 21.1046 2.5 20V18H30.5V20C30.5 21.1046 29.6046 22 28.5 22Z" fill="#AEAEAE"/>
</svg>
