<svg width="43" height="43" viewBox="0 0 43 43" fill="none" xmlns="http://www.w3.org/2000/svg">
<path d="M32.125 24.6875C32.125 22.9272 30.6978 21.5 28.9375 21.5H14.0625C12.3021 21.5 10.875 22.9272 10.875 24.6875V25.75C10.875 29.9392 14.8265 34.25 21.5 34.25C28.1736 34.25 32.125 29.9392 32.125 25.75V24.6875ZM27.3438 13.5312C27.3438 10.3038 24.7275 7.6875 21.5 7.6875C18.2725 7.6875 15.6562 10.3038 15.6562 13.5312C15.6562 16.7587 18.2725 19.375 21.5 19.375C24.7275 19.375 27.3438 16.7587 27.3438 13.5312ZM42.75 21.5C42.75 33.2359 33.2359 42.75 21.5 42.75C9.76394 42.75 0.25 33.2359 0.25 21.5C0.25 9.76394 9.76394 0.25 21.5 0.25C33.2359 0.25 42.75 9.76394 42.75 21.5ZM39.5625 21.5C39.5625 11.5244 31.4756 3.4375 21.5 3.4375C11.5244 3.4375 3.4375 11.5244 3.4375 21.5C3.4375 31.4756 11.5244 39.5625 21.5 39.5625C31.4756 39.5625 39.5625 31.4756 39.5625 21.5Z" fill="#212121"/>
</svg>
