<svg width="32" height="24" viewBox="0 0 32 24" fill="none" xmlns="http://www.w3.org/2000/svg">
<path d="M2 2C2 0.895431 2.89543 0 4 0H28C29.1046 0 30 0.895431 30 2L2 2Z" fill="#7338BE"/>
<path d="M16 18C18.2091 18 20 16.2091 20 14C20 11.7909 18.2091 10 16 10C13.7909 10 12 11.7909 12 14C12 16.2091 13.7909 18 16 18Z" fill="#7338BE"/>
<path d="M0 6C0 4.89543 0.895431 4 2 4H30C31.1046 4 32 4.89543 32 6V22C32 23.1046 31.1046 24 30 24H2C0.895431 24 0 23.1046 0 22V6ZM6 6C6 8.20914 4.20914 10 2 10V18C4.20914 18 6 19.7909 6 22H26C26 19.7909 27.7909 18 30 18V10C27.7909 10 26 8.20914 26 6H6Z" fill="#7338BE"/>
</svg>
