<svg width="91" height="92" viewBox="0 0 91 92" fill="none" xmlns="http://www.w3.org/2000/svg">
<path d="M45.5 0.575195C70.5828 0.575195 90.9167 20.9089 90.9167 45.9919C90.9167 71.0746 70.5828 91.4085 45.5 91.4085C20.4171 91.4085 0.083374 71.0746 0.083374 45.9919C0.083374 20.9089 20.4171 0.575195 45.5 0.575195ZM60.1228 32.2291L39.823 52.5287L30.8774 43.5834C29.5472 42.2532 27.3904 42.2532 26.0602 43.5834C24.73 44.9137 24.73 47.0701 26.0602 48.4003L37.4145 59.7545C38.7448 61.0847 40.9012 61.0847 42.2314 59.7545L64.9397 37.0461C66.27 35.7161 66.27 33.5593 64.9397 32.2291C63.6095 30.8989 61.4531 30.8989 60.1228 32.2291Z" fill="#048437"/>
</svg>
