<svg width="13" height="7" viewBox="0 0 13 7" fill="none" xmlns="http://www.w3.org/2000/svg">
<path d="M6.96963 0.46967C7.26253 0.176777 7.7374 0.176777 8.03029 0.46967C8.31959 0.758971 8.32314 1.22582 8.04094 1.51947L4.04873 6.50973C4.04297 6.51693 4.03682 6.52381 4.03029 6.53033C3.7374 6.82322 3.26253 6.82322 2.96963 6.53033L0.323186 3.88388C0.0302923 3.59099 0.0302923 3.11612 0.323186 2.82322C0.616079 2.53033 1.09095 2.53033 1.38385 2.82322L3.47737 4.91674L6.94974 0.492105C6.95592 0.484235 6.96256 0.476743 6.96963 0.46967Z" fill="white"/>
<path d="M6.04921 5.60991L6.96963 6.53033C7.26253 6.82322 7.7374 6.82322 8.03029 6.53033C8.03682 6.52381 8.04297 6.51693 8.04873 6.50973L12.0409 1.51947C12.3231 1.22582 12.3196 0.758971 12.0303 0.46967C11.7374 0.176777 11.2625 0.176777 10.9696 0.46967C10.9626 0.476743 10.9559 0.484235 10.9497 0.492105L7.47737 4.91674L6.99202 4.4314L6.04921 5.60991Z" fill="white"/>
</svg>
